<svg width="21" height="18" viewBox="0 0 21 18" fill="none" xmlns="http://www.w3.org/2000/svg">
<path d="M20.2841 6.42857H16.888L13.3201 0.312012C13.1431 0.0081746 12.7592 -0.0910269 12.4625 0.0916648C12.1665 0.274357 12.0707 0.669215 12.2483 0.973701L15.4303 6.42857H5.13806L8.32005 0.973658C8.49766 0.669172 8.40185 0.274313 8.10582 0.0916215C7.80857 -0.0910702 7.42591 0.00813134 7.24829 0.311968L3.68035 6.42853H0.28418V7.71425H1.64069L3.2285 16.4261C3.39451 17.3383 4.16965 18 5.07178 18H15.4966C16.3987 18 17.1738 17.3383 17.3392 16.4268L18.9276 7.71425H20.2842C20.2841 7.71425 20.2841 6.42857 20.2841 6.42857ZM16.1106 16.1901C16.0556 16.4939 15.7974 16.7143 15.4965 16.7143H5.07178C4.77088 16.7143 4.51272 16.494 4.45718 16.1895L2.91207 7.71425H17.6563L16.1106 16.1901Z" fill="white"/>
</svg>
