<svg xmlns="http://www.w3.org/2000/svg" xmlns:xlink="http://www.w3.org/1999/xlink"><symbol fill="currentColor" viewBox="0 0 21 18" id="cart"><path d="M20.284 6.429h-3.396L13.32.312a.616.616 0 0 0-.857-.22.653.653 0 0 0-.215.882l3.182 5.455H5.138L8.32.974a.653.653 0 0 0-.214-.882.616.616 0 0 0-.858.22L3.68 6.429H.284v1.285h1.357l1.587 8.712C3.395 17.338 4.17 18 5.072 18h10.425c.902 0 1.677-.662 1.842-1.573l1.589-8.713h1.356V6.43Zm-4.173 9.761a.63.63 0 0 1-.615.524H5.072a.63.63 0 0 1-.615-.524L2.912 7.713h14.744l-1.545 8.476Z"/></symbol><symbol fill="currentColor" viewBox="0 0 25 25" id="close"><path fill-rule="evenodd" clip-rule="evenodd" d="M24.053 24.864.37.956 1.318 0 25 23.908l-.947.956Z"/><path fill-rule="evenodd" clip-rule="evenodd" d="M24.63 1.092.946 25 0 24.044 23.682.136l.947.956Z"/></symbol><symbol fill="currentColor" viewBox="0 0 18 3" id="minus"><path d="M16.5 3h-15a1.5 1.5 0 0 1 0-3h15a1.5 1.5 0 1 1 0 3Z"/></symbol><symbol fill="currentColor" viewBox="0 0 18 18" id="plus"><path d="M17 10H1a1 1 0 0 1 0-2h16a1 1 0 1 1 0 2Z"/><path d="M8 17V1a1 1 0 0 1 2 0v16a1 1 0 1 1-2 0Z"/></symbol></svg>